<svg width="24" height="24" viewBox="0 0 24 24" fill="none" xmlns="http://www.w3.org/2000/svg">
<path d="M13.2 12C13.8365 12 14.447 12.2529 14.8971 12.703C15.3472 13.1531 15.6 13.7635 15.6 14.4V16.2C15.6 18.6648 13.0944 20.4 9.00002 20.4C4.90562 20.4 2.40002 18.6648 2.40002 16.2V14.4C2.40002 13.7635 2.65288 13.1531 3.10297 12.703C3.55306 12.2529 4.1635 12 4.80002 12H13.2ZM13.2 13.2H4.80002C4.48176 13.2 4.17654 13.3265 3.9515 13.5515C3.72645 13.7765 3.60002 14.0818 3.60002 14.4V16.2C3.60002 17.8884 5.49482 19.2 9.00002 19.2C12.5052 19.2 14.4 17.8884 14.4 16.2V14.4C14.4 14.0818 14.2736 13.7765 14.0486 13.5515C13.8235 13.3265 13.5183 13.2 13.2 13.2ZM19.2 12C19.8365 12 20.447 12.2529 20.8971 12.703C21.3472 13.1531 21.6 13.7635 21.6 14.4V15C21.6 17.5068 19.7184 19.2 16.2 19.2C16.0308 19.2 15.864 19.1964 15.7032 19.188C15.9497 18.9025 16.1601 18.5877 16.3296 18.2508L16.446 17.9952H16.4928C19.1712 17.9172 20.4 16.752 20.4 15V14.4C20.4 14.0818 20.2736 13.7765 20.0486 13.5515C19.8235 13.3265 19.5183 13.2 19.2 13.2H16.5948C16.4378 12.7574 16.1956 12.3497 15.882 12H19.2ZM9.00002 2.40002C9.55158 2.40002 10.0977 2.50866 10.6073 2.71973C11.1169 2.9308 11.5799 3.24017 11.9699 3.63018C12.3599 4.02018 12.6692 4.48319 12.8803 4.99275C13.0914 5.50232 13.2 6.04847 13.2 6.60003C13.2 7.15158 13.0914 7.69773 12.8803 8.2073C12.6692 8.71686 12.3599 9.17987 11.9699 9.56987C11.5799 9.95988 11.1169 10.2693 10.6073 10.4803C10.0977 10.6914 9.55158 10.8 9.00002 10.8C7.88612 10.8 6.81783 10.3575 6.03018 9.56987C5.24252 8.78222 4.80002 7.71393 4.80002 6.60003C4.80002 5.48612 5.24252 4.41783 6.03018 3.63018C6.81783 2.84252 7.88612 2.40002 9.00002 2.40002ZM17.4 4.80002C18.1957 4.80002 18.9587 5.1161 19.5213 5.6787C20.084 6.24131 20.4 7.00438 20.4 7.80002C20.4 8.59567 20.084 9.35874 19.5213 9.92135C18.9587 10.484 18.1957 10.8 17.4 10.8C16.6044 10.8 15.8413 10.484 15.2787 9.92135C14.7161 9.35874 14.4 8.59567 14.4 7.80002C14.4 7.00438 14.7161 6.24131 15.2787 5.6787C15.8413 5.1161 16.6044 4.80002 17.4 4.80002ZM9.00002 3.60002C8.20437 3.60002 7.44131 3.9161 6.8787 4.4787C6.31609 5.04131 6.00002 5.80438 6.00002 6.60003C6.00002 7.39567 6.31609 8.15874 6.8787 8.72135C7.44131 9.28396 8.20437 9.60003 9.00002 9.60003C9.79567 9.60003 10.5587 9.28396 11.1213 8.72135C11.684 8.15874 12 7.39567 12 6.60003C12 5.80438 11.684 5.04131 11.1213 4.4787C10.5587 3.9161 9.79567 3.60002 9.00002 3.60002ZM17.4 6.00002C16.9226 6.00002 16.4648 6.18967 16.1272 6.52723C15.7897 6.8648 15.6 7.32264 15.6 7.80002C15.6 8.27741 15.7897 8.73525 16.1272 9.07282C16.4648 9.41038 16.9226 9.60003 17.4 9.60003C17.8774 9.60003 18.3353 9.41038 18.6728 9.07282C19.0104 8.73525 19.2 8.27741 19.2 7.80002C19.2 7.32264 19.0104 6.8648 18.6728 6.52723C18.3353 6.18967 17.8774 6.00002 17.4 6.00002Z" fill="#1D2527"/>
</svg>
