<svg width="24" height="24" viewBox="0 0 24 24" fill="none" xmlns="http://www.w3.org/2000/svg">
<path d="M6.49922 5.65202C7.86908 4.46095 9.58925 3.74787 11.4 3.62042V5.40002C11.4 5.55915 11.4632 5.71177 11.5758 5.82429C11.6883 5.93681 11.8409 6.00002 12 6.00002C12.1592 6.00002 12.3118 5.93681 12.4243 5.82429C12.5368 5.71177 12.6 5.55915 12.6 5.40002V3.62162C14.512 3.7587 16.3197 4.54532 17.7231 5.85099C19.1266 7.15666 20.0415 8.9029 20.316 10.8H18C17.8409 10.8 17.6883 10.8632 17.5758 10.9758C17.4632 11.0883 17.4 11.2409 17.4 11.4C17.4 11.5592 17.4632 11.7118 17.5758 11.8243C17.6883 11.9368 17.8409 12 18 12H20.4C20.3986 13.1595 20.1628 14.3068 19.7069 15.3729C19.2509 16.439 18.5842 17.402 17.7468 18.204C17.6365 18.3144 17.5736 18.4635 17.5714 18.6195C17.5692 18.7756 17.6278 18.9263 17.7349 19.0398C17.842 19.1533 17.9892 19.2206 18.1451 19.2275C18.301 19.2343 18.4534 19.1801 18.57 19.0764C19.5264 18.1624 20.2879 17.0642 20.8086 15.848C21.3293 14.6319 21.5985 13.323 21.6 12C21.6 9.45395 20.5886 7.01215 18.7882 5.2118C16.9879 3.41145 14.5461 2.40002 12 2.40002C9.45395 2.40002 7.01215 3.41145 5.2118 5.2118C3.41145 7.01215 2.40002 9.45395 2.40002 12C2.40002 14.754 3.62402 17.328 5.47562 19.0764C5.53299 19.1305 5.60043 19.1727 5.67411 19.2007C5.74779 19.2287 5.82626 19.2419 5.90504 19.2395C5.98382 19.2372 6.06137 19.2194 6.13326 19.187C6.20515 19.1547 6.26997 19.1086 6.32402 19.0512C6.37808 18.9939 6.4203 18.9264 6.44829 18.8527C6.47627 18.7791 6.48947 18.7006 6.48713 18.6218C6.48479 18.543 6.46696 18.4655 6.43465 18.3936C6.40234 18.3217 6.35619 18.2569 6.29882 18.2028C4.67402 16.668 3.60002 14.4036 3.60002 12H6.00002C6.15915 12 6.31177 11.9368 6.42429 11.8243C6.53681 11.7118 6.60002 11.5592 6.60002 11.4C6.60002 11.2409 6.53681 11.0883 6.42429 10.9758C6.31177 10.8632 6.15915 10.8 6.00002 10.8H3.68402C3.91294 9.2074 4.59623 7.71457 5.65202 6.50042L7.37522 8.22482C7.48789 8.33749 7.64069 8.40078 7.80002 8.40078C7.95935 8.40078 8.11216 8.33749 8.22482 8.22482C8.33749 8.11216 8.40078 7.95935 8.40078 7.80002C8.40078 7.64069 8.33749 7.48789 8.22482 7.37522L6.49922 5.65202ZM16.1388 6.96842C16.2479 6.88182 16.3836 6.83584 16.5229 6.83837C16.6621 6.8409 16.7961 6.89177 16.902 6.98228C17.0078 7.07279 17.0788 7.19729 17.1029 7.33445C17.127 7.4716 17.1027 7.61286 17.034 7.73402L16.902 7.96922C16.4195 8.82135 15.9338 9.67176 15.4452 10.5204C15.0546 11.1996 14.6586 11.8756 14.2572 12.5484C14.1068 12.8016 13.9532 13.0528 13.7964 13.302C13.6764 13.4904 13.5588 13.6692 13.4724 13.77C13.1624 14.1332 12.7209 14.3583 12.2449 14.3959C11.769 14.4334 11.2976 14.2804 10.9344 13.9704C10.5713 13.6604 10.3462 13.2189 10.3086 12.7429C10.271 12.267 10.424 11.7956 10.734 11.4324C10.8204 11.3316 10.9776 11.1864 11.1456 11.0388C11.3256 10.8792 11.5572 10.6836 11.8176 10.464C12.3408 10.0272 12.996 9.49202 13.6344 8.97602C14.3959 8.36006 15.1599 7.74725 15.9264 7.13762L16.1388 6.96962V6.96842Z" fill="#1D2527"/>
</svg>
